<svg width="43.2mm" height="43.145mm" version="1.1" viewBox="0 0 43.2 43.145" xmlns="http://www.w3.org/2000/svg">
 <g transform="matrix(1.4368 0 0 1.4336 -151.83 -160.12)">
  <g transform="matrix(.69279 0 0 .69514 41.534 38.696)" stroke="#60c3d7">
   <g fill="none">
    <g transform="translate(-19.655,-26.458)">
     <ellipse cx="128.23" cy="147.41" rx="14.287" ry="14.193" stroke-width="3.1617"/>
     <path d="m138.72 157.43 15.308 15.875" stroke-width="4.265"/>
    </g>
    <circle cx="108.57" cy="120.86" r="11.815" stroke-width=".43606"/>
    <path d="m98.589 122.54 6.9156 6.9156 12.6-13.353-2.7868-2.5488-9.9136 10.556-4.2429-4.1427z" stroke-width=".26458px"/>
   </g>
   <path transform="scale(.26458)" d="m405.44 500.25c-9.8587-1.2605-18.283-5.2225-25.202-11.852-6.9836-6.6919-11.327-14.838-13.033-24.446-0.48126-2.7103-0.66035-8.7884-0.34481-11.702 1.0995-10.152 5.8976-19.979 13.133-26.896 6.9846-6.6774 15.359-10.687 25.089-12.013 2.1589-0.29414 8.3474-0.30074 10.446-0.0111 7.2846 1.005 13.179 3.2004 19.018 7.0837 8.4821 5.6409 14.655 13.937 17.682 23.764 2.1121 6.8571 2.3948 14.939 0.77703 22.22-2.4234 10.906-9.244 20.699-18.816 27.015-2.3531 1.5527-6.4672 3.6008-9.1336 4.5471-2.4484 0.86889-5.8036 1.7142-8.3664 2.108-2.5576 0.39292-8.8072 0.49365-11.25 0.18133zm18.128-36.351c12.354-13.112 22.735-24.129 23.07-24.482l0.60861-0.64305-5.646-5.1605c-3.1053-2.8383-5.7014-5.174-5.7692-5.1906-0.0678-0.0165-8.5136 8.9177-18.769 19.854l-18.645 19.884-1.2965-1.1932c-0.71305-0.65625-4.321-4.1612-8.0176-7.7888l-6.7212-6.5956-10.602 10.602 26.961 26.963 1.1823-1.2048c0.65025-0.66264 11.29-11.932 23.644-25.044z" fill="#60c3d7" fill-opacity=".95327" stroke-width="1.716"/>
  </g>
 </g>
</svg>
